<svg width="520" height="376" viewBox="0 0 520 376" fill="none" xmlns="http://www.w3.org/2000/svg">
<path fill-rule="evenodd" clip-rule="evenodd" d="M254.349 158.4H291.749L296.379 214.87H249.719L254.349 158.4Z" fill="#DB9779"/>
<path fill-rule="evenodd" clip-rule="evenodd" d="M300.769 109.51C300.689 108.67 300.579 107.84 300.469 107.02C300.409 106.6 300.339 106.19 300.269 105.77C300.209 105.37 300.149 104.96 300.069 104.56C299.989 104.1 299.889 103.64 299.799 103.19C299.729 102.84 299.659 102.49 299.589 102.15C299.489 101.68 299.369 101.22 299.259 100.76C299.179 100.43 299.099 100.1 299.009 99.7803C298.889 99.3203 298.759 98.8603 298.629 98.4003C298.539 98.0803 298.449 97.7703 298.349 97.4503C298.209 96.9903 298.069 96.5403 297.919 96.0903C297.819 95.7803 297.709 95.4803 297.609 95.1803C297.449 94.7303 297.289 94.2803 297.129 93.8403C297.019 93.5503 296.909 93.2603 296.789 92.9703C296.609 92.5203 296.439 92.0803 296.249 91.6403C296.129 91.3703 296.009 91.1003 295.889 90.8303C295.689 90.3803 295.499 89.9403 295.289 89.5003C295.179 89.2703 295.059 89.0403 294.949 88.8103C294.719 88.3403 294.489 87.8703 294.249 87.4103C294.189 87.2903 294.119 87.1603 294.049 87.0403C292.729 84.5503 291.239 82.2003 289.619 80.0203C289.619 80.0203 289.619 80.0103 289.609 80.0003C289.189 79.4403 288.769 78.9003 288.339 78.3703C288.329 78.3503 288.309 78.3303 288.299 78.3103C279.399 67.3403 266.779 61.0103 253.459 62.3403C230.149 64.6603 213.559 89.5503 216.399 117.94C217.959 133.68 225.189 147.19 235.289 155.71C235.289 155.71 235.289 155.71 235.299 155.72C235.319 155.74 235.339 155.75 235.369 155.77C235.759 156.1 236.159 156.42 236.559 156.73C236.699 156.84 236.839 156.95 236.979 157.06C237.369 157.36 237.769 157.65 238.169 157.94C238.319 158.05 238.479 158.16 238.629 158.27C239.029 158.55 239.429 158.81 239.829 159.07C239.999 159.18 240.159 159.28 240.329 159.38C240.729 159.63 241.139 159.88 241.549 160.12C241.719 160.22 241.889 160.31 242.059 160.41C242.479 160.64 242.889 160.87 243.309 161.09C243.469 161.17 243.629 161.25 243.789 161.33C244.229 161.55 244.669 161.77 245.109 161.97C245.149 161.99 245.189 162 245.229 162.02C246.139 162.43 247.059 162.79 247.989 163.13C248.229 163.22 248.469 163.31 248.719 163.39C249.039 163.5 249.369 163.59 249.699 163.69C250.019 163.79 250.349 163.89 250.669 163.98C250.969 164.06 251.279 164.14 251.589 164.21C251.949 164.3 252.299 164.39 252.659 164.46C252.949 164.52 253.239 164.58 253.539 164.64C253.919 164.71 254.299 164.78 254.679 164.84C254.959 164.88 255.239 164.93 255.519 164.96C255.919 165.01 256.329 165.06 256.739 165.1C257.009 165.13 257.269 165.15 257.539 165.17C257.969 165.2 258.409 165.22 258.839 165.24C259.089 165.24 259.329 165.26 259.579 165.27C260.069 165.27 260.549 165.27 261.039 165.27C261.239 165.27 261.439 165.27 261.639 165.26C262.329 165.23 263.019 165.19 263.719 165.12C287.009 162.78 303.619 137.89 300.779 109.52L300.769 109.51Z" fill="#272B3A"/>
<path fill-rule="evenodd" clip-rule="evenodd" d="M314.54 118.16C314.17 112.72 312.89 108.09 312.12 105.24C311.35 102.37 311.11 101.29 310.34 101.06C309.57 100.83 308.29 101.49 306.89 102.18C305.48 102.84 303.95 103.54 303.25 104.54C302.53 105.51 302.65 106.79 303.29 109.75C303.91 112.71 305.09 117.34 305.92 123.58C306.73 129.85 307.2 137.72 307.45 141.65C307.45 141.77 307.46 141.88 307.47 142C306.31 142.67 304.8 143.98 303.75 146.12C302.51 148.66 301.91 152.39 301.66 154.66C301.41 156.93 301.47 157.78 301.83 158.13C302.18 158.48 302.82 158.36 303.98 157.18C305.16 156.02 306.86 153.81 308.14 151.64C309.44 149.47 310.31 147.32 310.81 146.02C311.31 144.72 311.41 144.28 311.24 143.7C311.05 143.12 310.6 142.4 310.14 141.9C310.11 141.87 310.08 141.84 310.05 141.81C311.04 140.06 312.21 137.64 313.06 134.54C314.36 129.85 314.9 123.6 314.55 118.16H314.54Z" fill="#272B3A"/>
<path fill-rule="evenodd" clip-rule="evenodd" d="M232.57 126.06C227.92 128.29 226.65 135.32 229.74 141.78C232.82 148.23 239.09 151.64 243.74 149.41C248.41 147.2 249.68 140.17 246.59 133.71C243.51 127.26 237.24 123.83 232.57 126.06Z" fill="#DB9779"/>
<path fill-rule="evenodd" clip-rule="evenodd" d="M313.848 125.87C318.518 128.1 319.788 135.13 316.698 141.59C313.618 148.02 307.348 151.45 302.698 149.22C298.028 147.01 296.758 139.98 299.848 133.52C302.928 127.07 309.198 123.64 313.848 125.87Z" fill="#DB9779"/>
<path fill-rule="evenodd" clip-rule="evenodd" d="M273.222 176.35C294.462 176.35 311.772 154.86 311.772 128.52C311.772 102.18 294.462 80.6904 273.222 80.6904C251.982 80.6904 234.672 102.18 234.672 128.52C234.672 154.86 251.982 176.35 273.222 176.35Z" fill="#E0A382"/>
<path fill-rule="evenodd" clip-rule="evenodd" d="M327.01 72.89C327.01 72.89 327 72.85 326.99 72.83C322.43 68.94 316.12 66.08 308.91 64.78C308.84 64.77 308.77 64.75 308.7 64.74C308.25 64.66 307.8 64.59 307.35 64.52C307.18 64.49 307 64.47 306.83 64.45C306.45 64.4 306.06 64.35 305.67 64.31C305.41 64.28 305.15 64.26 304.89 64.23C304.56 64.2 304.24 64.17 303.91 64.14C303.55 64.11 303.19 64.09 302.83 64.08C302.58 64.07 302.33 64.05 302.07 64.04C301.44 64.02 300.82 64 300.18 64C281.11 64 265.66 74.69 265.66 87.88C265.66 88.34 265.68 88.8 265.72 89.26C265.74 89.46 265.76 89.67 265.79 89.87C265.82 90.1 265.85 90.33 265.88 90.56C265.92 90.83 265.97 91.1 266.03 91.37C266.06 91.49 266.08 91.61 266.11 91.73C266.28 92.47 266.48 93.2 266.75 93.92C266.76 93.92 266.77 93.94 266.78 93.95C270.67 104.2 284.17 111.79 300.17 111.79C319.18 111.79 334.69 101.06 334.69 87.89C334.69 82.22 331.8 77 326.99 72.89H327.01Z" fill="#272B3A"/>
<path fill-rule="evenodd" clip-rule="evenodd" d="M260.969 78.7002C276.689 78.7002 290.149 87.4902 295.719 99.9602C281.369 89.4302 258.799 93.8002 243.989 110.46C237.539 117.74 233.569 126.2 232.159 134.51C226.739 128.62 223.469 121.03 223.469 112.74C223.469 93.9402 240.259 78.7002 260.969 78.7002Z" fill="#272B3A"/>
<path fill-rule="evenodd" clip-rule="evenodd" d="M165.051 357.86C159.071 350.06 147.681 336.04 142.881 325.99C138.061 315.92 139.801 309.78 145.801 292.64C151.781 275.5 161.991 247.35 168.991 231.66C176.001 215.99 179.811 212.76 188.411 208.83C197.011 204.88 210.441 200.23 224.311 196.8C232.931 194.67 244.211 192.5 251.671 191.34C262.091 212.68 285.631 213.16 294.461 191.36C301.491 192.46 312.101 194.5 320.251 196.53C334.111 199.96 347.531 204.62 356.131 208.56C364.751 212.49 368.541 215.71 375.551 231.39C382.541 247.06 392.761 275.23 398.761 292.37C404.741 309.51 406.471 315.65 401.681 325.7C396.861 335.77 385.461 349.79 379.491 357.59C373.511 365.41 372.931 367 372.421 367.95C371.901 368.9 371.471 369.19 354.551 369.91C337.611 370.65 304.211 371.81 287.501 372.39C281.251 372.62 262.781 372.87 257.061 372.66C240.371 372.08 206.951 370.92 190.011 370.18C173.091 369.46 172.661 369.17 172.141 368.22C171.621 367.27 171.041 365.68 165.071 357.86H165.051Z" fill="#FFCA5A"/>
<path fill-rule="evenodd" clip-rule="evenodd" d="M172.641 356.02H371.461C377.151 356.02 381.801 351.37 381.801 345.68V235.28C381.801 229.59 377.151 224.94 371.461 224.94H172.641C166.951 224.94 162.301 229.59 162.301 235.28V345.68C162.301 351.37 166.951 356.02 172.641 356.02Z" fill="#272B3A"/>
<path fill-rule="evenodd" clip-rule="evenodd" d="M172.641 356.02H371.631C376.681 356.02 380.921 352.3 381.811 347.44V241.4C381.811 235.67 377.161 230.98 371.471 230.98H172.481C167.431 230.98 163.191 234.68 162.301 239.54V345.6C162.301 351.33 166.951 356.02 172.641 356.02Z" fill="#2E344B"/>
<path fill-rule="evenodd" clip-rule="evenodd" d="M272.118 277.34C264.878 277.34 258.988 283.23 258.988 290.47C258.988 297.71 264.878 303.6 272.118 303.6C279.358 303.6 285.248 297.73 285.248 290.47C285.248 283.21 279.378 277.34 272.118 277.34ZM272.118 280.63C266.678 280.63 262.278 285.03 262.278 290.47C262.278 295.91 266.688 300.33 272.118 300.33C277.548 300.33 281.988 295.9 281.988 290.47C281.988 285.04 277.578 280.63 272.118 280.63Z" fill="#FFC959"/>
<path fill-rule="evenodd" clip-rule="evenodd" d="M388.689 102.13C366.699 102.13 348.879 119.98 348.879 141.96C348.879 153.33 353.639 163.59 361.289 170.85L359.179 175.56L352.869 189.7L365.569 180.85L370.509 177.4C375.969 180.21 382.149 181.78 388.689 181.78C410.699 181.78 428.519 163.96 428.519 141.95C428.519 119.94 410.689 102.12 388.689 102.12V102.13Z" fill="white"/>
<path fill-rule="evenodd" clip-rule="evenodd" d="M112.018 88.7903C87.5483 88.7903 67.7383 108.62 67.7383 133.06C67.7383 157.5 87.5483 177.35 112.018 177.35C122.028 177.35 131.278 174.02 138.678 168.42L144.718 171.27L160.288 178.59L150.728 164.28L147.538 159.5C153.038 152.12 156.308 142.98 156.308 133.05C156.308 108.61 136.478 88.7803 112.008 88.7803L112.018 88.7903Z" fill="white"/>
<path fill-rule="evenodd" clip-rule="evenodd" d="M50.7993 249.47C30.5493 262.81 24.9493 290.02 38.2893 310.27C51.6293 330.51 78.8494 336.12 99.0794 322.78C115.269 312.11 122.099 292.57 117.359 274.81L123.299 270.53L137.139 260.56L120.139 261.97L112.029 262.65C111.889 262.42 111.739 262.22 111.619 261.99C98.2794 241.77 71.0593 236.16 50.8094 249.48L50.7993 249.47Z" fill="white"/>
<path fill-rule="evenodd" clip-rule="evenodd" d="M402.48 293.51L415.55 285.84L422.62 281.68C422.58 280.87 422.56 280.07 422.56 279.24C422.56 257.71 440.02 240.24 461.57 240.24C483.12 240.24 500.6 257.71 500.6 279.24C500.6 300.77 483.12 318.26 461.57 318.26C445.17 318.26 431.1 308.13 425.35 293.78L417.64 293.7L402.48 293.51Z" fill="white"/>
<path d="M55.0506 279.011L55.8006 287.521L45.9806 288.361L45.2306 279.861L42.6406 280.091L44.3606 300.011L46.9506 299.781L46.1706 290.701L55.9906 289.861L56.7706 298.941L59.3806 298.701L57.6606 278.811L55.0506 279.011Z" fill="#F8C45D"/>
<path d="M74.9311 277.32L59.3711 278.64L59.5911 281.01L66.0611 280.45L67.5711 298L70.1611 297.8L68.6511 280.22L75.1511 279.68L74.9311 277.32Z" fill="#F8C45D"/>
<path d="M93.26 275.74L87.96 292.22L79.94 276.88L77 277.14L78.7 297.05L81.31 296.82L80.54 288.04L79.95 282.27L87.36 296.31L89.25 296.15L94.16 280.99L94.58 286.88L95.33 295.63L97.93 295.39L96.22 275.48L93.26 275.74Z" fill="#F8C45D"/>
<path d="M113.49 291.69L104.14 292.5L102.63 274.94L100.02 275.17L101.72 295.07L113.67 294.05L113.49 291.69Z" fill="#F8C45D"/>
<path d="M89.3384 136.6C89.3184 137.85 88.9684 138.84 88.2984 139.55C87.6184 140.27 86.7584 140.61 85.6784 140.61C84.4884 140.61 83.5684 140.3 82.9484 139.7C82.3184 139.09 82.0084 138.16 82.0084 136.94V136.44H79.3984V136.94C79.3984 138.82 79.9484 140.31 81.0384 141.37C82.1484 142.45 83.6684 142.98 85.6884 142.98C87.5784 142.98 89.1184 142.39 90.2684 141.21C91.4084 140.03 91.9784 138.45 91.9784 136.52V122.56H89.3484V136.6H89.3384Z" fill="#F8C45D"/>
<path d="M123.347 122.56L117.548 138.69L111.767 122.56H108.938L116.447 142.71H118.667L126.177 122.56H123.347Z" fill="#F8C45D"/>
<path d="M134.407 122.56H132.187L124.547 142.71H127.317L129.307 137.33H137.297L139.287 142.71H142.057L134.417 122.56H134.407ZM136.407 134.95H130.167L133.297 126.48L136.407 134.95Z" fill="#F8C45D"/>
<path d="M100.808 122.56L93.168 142.71H95.938L97.928 137.33H105.918L107.928 142.71H110.678L103.038 122.56H100.818H100.808ZM105.048 134.95H98.788L101.918 126.47L105.048 134.95Z" fill="#F8C45D"/>
<path d="M464.779 281.43L467.009 276.52L464.839 275.52L462.609 280.43L458.009 278.36L457.059 280.44L461.639 282.53L459.339 287.62L461.529 288.61L463.829 283.53L468.499 285.65L469.479 283.55L464.779 281.43Z" fill="#F8C45D"/>
<path d="M453.16 280.26C452.45 281.39 451.66 282.1 450.8 282.39C449.93 282.68 448.88 282.55 447.67 281.99C446.43 281.44 445.69 280.54 445.39 279.26C445.1 277.94 445.33 276.43 446.08 274.8L446.95 272.91C447.73 271.18 448.73 270 449.93 269.39C451.08 268.8 452.29 268.79 453.53 269.36C455.79 270.39 456.51 272.1 455.72 274.59L455.59 275.01L457.82 276.02L458 275.5C458.6 273.75 458.59 272.13 458 270.7C457.42 269.26 456.22 268.13 454.45 267.33C453.19 266.77 451.92 266.58 450.68 266.75C449.42 266.93 448.27 267.48 447.26 268.38C446.27 269.24 445.43 270.41 444.78 271.86L443.87 273.84C443.24 275.22 442.91 276.61 442.91 277.98C442.91 279.35 443.24 280.51 443.92 281.58C444.59 282.63 445.55 283.45 446.76 284C447.88 284.51 448.95 284.76 449.96 284.76C450.53 284.76 451.08 284.68 451.62 284.52C453.12 284.07 454.37 283.01 455.34 281.36L455.62 280.88L453.41 279.9L453.18 280.27L453.16 280.26Z" fill="#F8C45D"/>
<path d="M476.98 286.98L479.21 282.06L477.04 281.06L474.81 285.99L470.22 283.9L469.27 285.98L473.84 288.07L471.54 293.16L473.71 294.16L476.03 289.07L480.71 291.2L481.65 289.09L476.98 286.98Z" fill="#F8C45D"/>
<path d="M379.479 144.79L370.129 136.27L382.759 135.32L383.869 132.14L366.639 133.78L365.879 136.04L378.379 147.99L379.479 144.79Z" fill="#F8C45D"/>
<path d="M398.288 130.39L378.148 154.3L381.008 155.26L401.118 131.39L398.288 130.39Z" fill="#F8C45D"/>
<path d="M401.111 138.069L400.021 141.179L409.611 149.839L396.721 150.749L395.641 153.899L413.151 152.329L413.921 150.089L401.111 138.069Z" fill="#F8C45D"/>
<path fill-rule="evenodd" clip-rule="evenodd" d="M35.3708 355.88H509.931C515.471 355.88 520.001 360.41 520.001 365.93C520.001 371.47 515.471 376 509.931 376H35.3708C29.8508 376 25.3008 371.47 25.3008 365.93C25.3008 360.41 29.8508 355.88 35.3708 355.88Z" fill="white"/>
<path fill-rule="evenodd" clip-rule="evenodd" d="M0.69961 198.02C6.83961 198.02 1.87961 198.52 5.82961 190.02C6.38961 188.86 7.02961 187.66 7.74961 186.69L10.1096 183.79C13.0896 180.83 18.6896 177.36 24.5296 177.36C29.9496 177.36 33.4596 178.02 38.0196 181.04C39.3196 181.91 40.9596 183.19 41.9896 184.41C42.6896 185.26 44.7996 187.99 45.0096 188.92C44.1796 189.31 42.1596 189.91 41.1596 190.14C41.4696 191.3 47.1596 197.29 47.9196 198.27C48.5596 199.12 49.5996 200.28 50.9596 200.3L52.6996 190.13C52.9096 189.14 53.2396 187.73 53.2396 186.66C52.5396 186.83 51.8296 187.05 51.0696 187.28C50.2796 187.51 49.4596 187.82 48.6896 187.88C47.4096 185.46 46.0596 183.41 44.1796 181.53C40.2096 177.56 35.6196 174.75 29.7396 173.9C26.3496 173.4 23.0396 173.53 19.8996 174.33C15.4496 175.45 10.6796 177.93 7.56961 181.09C5.53961 183.16 3.13961 186.78 2.08961 189.42C1.85961 189.96 -0.91039 198.02 0.69961 198.02Z" fill="#2E344B"/>
<path fill-rule="evenodd" clip-rule="evenodd" d="M0 214.64C0.68 214.64 4.14 213.71 4.74 213.42C5.36 216.07 10.2 221.28 12.99 223.2C17.19 226.05 21.78 227.56 26.39 227.77H28.67C33.84 227.54 38.97 225.68 43.52 222.25C47.35 219.38 50.61 214.6 52.04 209.95C52.95 206.97 53.07 206.43 53.07 203.46H49.39C49.39 214.34 39.4 224.12 27.67 224.12C22.4 224.12 16.38 221.76 13.44 218.91C12.2 217.69 12.86 218.6 11.52 216.99C10.71 216.04 10.75 216.33 9.78 214.88L8.23 212.38C9.7 212.26 10.92 211.37 12.26 211.35C12.07 210.67 11.7 210.38 11.29 209.86L6.7 204.46C5.38 203.18 4.74 201.54 2.46 201.01C2.46 202.04 0.25 214.14 0 214.66L0 214.64Z" fill="#2E344B"/>
<path fill-rule="evenodd" clip-rule="evenodd" d="M132.41 29.4698L184.41 17.7598L192.26 52.6098L140.25 64.3098L132.41 29.4698Z" fill="#F8C45D"/>
<path fill-rule="evenodd" clip-rule="evenodd" d="M153.151 0L168.691 8.83L184.241 17.66L158.431 23.45L132.621 29.26L142.901 14.64L153.151 0Z" fill="#F8C45D"/>
<path fill-rule="evenodd" clip-rule="evenodd" d="M163.641 47.0403L173.901 32.4003L184.161 17.7803L158.351 23.5703L132.551 29.3803L148.091 38.2103L163.641 47.0403Z" fill="#FFDA79"/>
<path fill-rule="evenodd" clip-rule="evenodd" d="M143.349 35.6502L146.909 37.6602C145.379 33.9802 144.739 29.4102 145.169 25.9102C145.959 19.8102 149.409 14.5002 156.339 12.9402C165.109 10.9502 170.529 15.3402 172.329 23.3002C173.049 26.5302 173.879 31.0102 171.979 33.6602C170.549 35.6502 166.889 36.7202 165.959 32.6302L164.429 21.4402C164.389 21.0102 164.289 20.1802 164.219 19.8302C163.479 19.6402 162.999 19.1902 161.549 18.8202C158.759 18.1402 155.279 19.3602 153.749 21.7802C152.159 24.2602 151.539 25.9802 151.499 29.5602C151.479 32.7902 152.389 37.6202 155.329 39.5702C157.559 41.0402 160.929 40.0902 162.629 38.2502C162.999 37.8402 163.229 37.4602 163.539 36.9902C163.909 36.4102 164.059 35.8502 164.259 35.6002C164.669 36.4702 165.519 37.0102 166.219 37.4602C167.499 38.2502 168.909 37.9402 170.359 37.6302C170.399 37.6102 170.439 37.6102 170.479 37.5902L175.569 30.3502C175.629 29.7102 175.669 29.0702 175.689 28.4102C175.769 24.7502 174.199 20.1402 172.609 17.1802C169.529 11.4102 163.219 8.81019 156.749 10.2702C153.109 11.0802 151.309 11.7002 148.369 14.0702C146.029 15.9702 143.919 19.2602 143.179 22.1802C142.249 25.8402 141.879 29.2302 142.809 33.3502C142.999 34.2202 143.159 34.9602 143.349 35.6702V35.6502ZM159.379 37.3702C158.039 37.6802 157.079 37.6602 156.089 36.3202C153.809 33.2402 153.669 26.2902 155.919 23.1502C157.259 21.2702 159.479 20.8502 161.629 21.4302L162.889 30.8802C162.989 32.0002 163.029 31.5802 162.789 32.9302C162.459 34.6902 161.419 36.9202 159.379 37.3802V37.3702Z" fill="#FFFDF7"/>
<path fill-rule="evenodd" clip-rule="evenodd" d="M338.041 14.0601C339.671 14.3901 341.181 15.0301 342.511 15.9401L346.541 11.8901L350.121 15.4701L346.071 19.5201L345.951 19.4201C346.801 20.6801 347.401 22.1101 347.731 23.6601V23.6401L353.481 23.6601L353.461 28.7101H347.791C347.501 30.2001 346.941 31.6101 346.161 32.8501L346.201 32.8101L350.251 36.8801L346.671 40.4401L342.741 36.4901C341.351 37.4801 339.781 38.1901 338.071 38.5401V44.1901L333.001 44.1701L333.021 38.5701C331.321 38.2201 329.771 37.5401 328.411 36.5801L324.361 40.6501L320.781 37.0701L324.831 33.0201L325.241 33.4301C324.311 32.1101 323.651 30.5801 323.301 28.9201H317.571L317.551 23.8701L323.261 23.8501C323.551 22.3401 324.131 20.9301 324.911 19.6701L320.901 15.6801L324.481 12.1001L328.411 16.0301C329.751 15.0801 331.331 14.4001 333.001 14.0401V8.33008H338.051V14.0601H338.041ZM335.521 19.4801C339.281 19.4801 342.321 22.5201 342.321 26.2801C342.321 30.0401 339.281 33.1001 335.521 33.1001C331.761 33.1001 328.691 30.0401 328.691 26.2801C328.691 22.5201 331.751 19.4801 335.521 19.4801Z" fill="#2E344B"/>
<path fill-rule="evenodd" clip-rule="evenodd" d="M358.861 45.1203C360.041 45.3703 361.111 45.8203 362.071 46.4603L364.971 43.5603L367.531 46.1203L364.611 49.0403L364.531 48.9603C365.131 49.8703 365.561 50.9003 365.811 52.0003H369.931V55.6203H365.861C365.631 56.7003 365.241 57.6903 364.681 58.6003L364.721 58.5603L367.621 61.4803L365.061 64.0403L362.251 61.2103C361.261 61.9103 360.121 62.4303 358.901 62.6803L358.881 66.7303L355.261 66.7103L355.281 62.6803C354.061 62.4303 352.941 61.9603 351.971 61.2703L349.051 64.1903L346.491 61.6303L349.411 58.7103L349.701 59.0203C349.041 58.0703 348.561 56.9503 348.291 55.7703H344.191V52.1503H348.261C348.471 51.0703 348.881 50.0603 349.461 49.1503L346.591 46.2803L349.151 43.7203L351.961 46.5303C352.931 45.8503 354.051 45.3703 355.251 45.1203V41.0303H358.871V45.1203H358.861ZM357.041 49.0103C359.751 49.0103 361.941 51.2003 361.941 53.9103C361.941 56.6203 359.751 58.7903 357.041 58.7903C354.331 58.7903 352.161 56.6003 352.161 53.9103C352.161 51.2203 354.351 49.0103 357.041 49.0103Z" fill="#2E344B"/>
</svg>
